<svg xmlns="http://www.w3.org/2000/svg" width="1800" height="250" viewBox="0 0 1800 250"><rect width="100%" height="100%" fill="#DDDDDD"/><path fill="#999999" d="M625.53 158.63h16.25v11.56h-50v-11.56h18.31v-52.69q0-3.13.19-6.44l-13 10.88q-1.12.87-2.22 1.09-1.09.22-2.06.03t-1.72-.65q-.75-.47-1.12-1.04l-4.88-6.68 27.56-23.44h12.69v78.94Zm60.31.5q3.82 0 6.69-1.1 2.88-1.09 4.85-3.03 1.96-1.94 2.96-4.62 1-2.69 1-5.82 0-7.43-4.12-11.25-4.13-3.81-11.38-3.81-7.25 0-11.37 3.81-4.13 3.82-4.13 11.25 0 3.13 1 5.82 1 2.68 2.97 4.62 1.97 1.94 4.85 3.03 2.87 1.1 6.68 1.1Zm0-68.69q-3.43 0-5.93 1.06-2.5 1.06-4.16 2.85-1.66 1.78-2.44 4.09-.78 2.31-.78 4.87 0 2.69.66 5.22.65 2.53 2.22 4.5 1.56 1.97 4.12 3.16 2.56 1.19 6.31 1.19 3.75 0 6.32-1.19 2.56-1.19 4.12-3.16 1.56-1.97 2.22-4.5.66-2.53.66-5.22 0-2.56-.82-4.87-.81-2.31-2.43-4.09-1.63-1.79-4.13-2.85t-5.94-1.06Zm15.25 32.62q8.25 2.69 12.19 8.22 3.94 5.53 3.94 13.53 0 6-2.28 10.88-2.28 4.87-6.41 8.31-4.12 3.44-9.9 5.31-5.79 1.88-12.79 1.88-7 0-12.78-1.88-5.78-1.87-9.9-5.31-4.13-3.44-6.41-8.31-2.28-4.88-2.28-10.88 0-8 3.94-13.53 3.93-5.53 12.18-8.22-6.56-2.75-9.84-7.81-3.28-5.06-3.28-12.19 0-5.12 2.09-9.56 2.1-4.44 5.85-7.72 3.75-3.28 8.97-5.12 5.21-1.85 11.46-1.85 6.25 0 11.47 1.85 5.22 1.84 8.97 5.12 3.75 3.28 5.85 7.72 2.09 4.44 2.09 9.56 0 7.13-3.28 12.19t-9.85 7.81Zm90.38 1.94q0 11.81-2.53 20.53t-7 14.41q-4.47 5.69-10.56 8.47-6.1 2.78-13.16 2.78-7.06 0-13.09-2.78-6.04-2.78-10.47-8.47-4.44-5.69-6.94-14.41-2.5-8.72-2.5-20.53 0-11.87 2.5-20.56t6.94-14.38q4.43-5.68 10.47-8.46 6.03-2.79 13.09-2.79t13.16 2.79q6.09 2.78 10.56 8.46 4.47 5.69 7 14.38 2.53 8.69 2.53 20.56Zm-15.94 0q0-9.81-1.44-16.25-1.43-6.44-3.84-10.25-2.41-3.81-5.53-5.34-3.13-1.53-6.5-1.53-3.31 0-6.41 1.53-3.09 1.53-5.47 5.34-2.37 3.81-3.78 10.25-1.4 6.44-1.4 16.25 0 9.81 1.4 16.25 1.41 6.44 3.78 10.25 2.38 3.81 5.47 5.35 3.1 1.53 6.41 1.53 3.37 0 6.5-1.53 3.12-1.54 5.53-5.35 2.41-3.81 3.84-10.25 1.44-6.44 1.44-16.25Zm88.44 0q0 11.81-2.53 20.53t-7 14.41q-4.47 5.69-10.56 8.47-6.1 2.78-13.16 2.78-7.06 0-13.09-2.78-6.04-2.78-10.47-8.47-4.44-5.69-6.94-14.41-2.5-8.72-2.5-20.53 0-11.87 2.5-20.56t6.94-14.38q4.43-5.68 10.47-8.46 6.03-2.79 13.09-2.79t13.16 2.79q6.09 2.78 10.56 8.46 4.47 5.69 7 14.38 2.53 8.69 2.53 20.56Zm-15.94 0q0-9.81-1.44-16.25-1.43-6.44-3.84-10.25-2.41-3.81-5.53-5.34-3.13-1.53-6.5-1.53-3.31 0-6.41 1.53-3.09 1.53-5.47 5.34-2.37 3.81-3.78 10.25-1.4 6.44-1.4 16.25 0 9.81 1.4 16.25 1.41 6.44 3.78 10.25 2.38 3.81 5.47 5.35 3.1 1.53 6.41 1.53 3.37 0 6.5-1.53 3.12-1.54 5.53-5.35 2.41-3.81 3.84-10.25 1.44-6.44 1.44-16.25Zm115.19 24.5-8.19 8.06-21.18-21.18-21.38 21.31-8.19-8.06 21.38-21.44-20.38-20.38 8.13-8.12 20.37 20.37 20.25-20.25 8.25 8.13-20.31 20.31 21.25 21.25Zm75.25 6.31h23.19q2.5 0 3.97 1.41 1.47 1.41 1.47 3.72v9.25h-62v-5.13q0-1.56.65-3.28.66-1.72 2.1-3.09l27.43-27.5q3.44-3.5 6.16-6.69 2.72-3.19 4.53-6.31 1.81-3.13 2.78-6.34.97-3.22.97-6.79 0-3.25-.94-5.71-.93-2.47-2.65-4.16-1.72-1.69-4.13-2.53-2.4-.85-5.4-.85-2.75 0-5.1.79-2.34.78-4.15 2.18-1.82 1.41-3.07 3.28-1.25 1.88-1.87 4.13-1.06 2.87-2.75 3.81t-4.88.44l-8.12-1.44q.94-6.5 3.62-11.4 2.69-4.91 6.72-8.19 4.03-3.28 9.25-4.94 5.22-1.66 11.22-1.66 6.25 0 11.44 1.85 5.19 1.84 8.87 5.22 3.69 3.37 5.75 8.12 2.07 4.75 2.07 10.56 0 5-1.47 9.25t-3.94 8.13q-2.47 3.87-5.78 7.5-3.31 3.62-6.94 7.37l-20.37 20.82q2.93-.88 5.84-1.35 2.91-.47 5.53-.47Zm62.94-62-3.19 18.82q3-.63 5.75-.91t5.31-.28q7.13 0 12.57 2.12 5.43 2.13 9.12 5.88 3.69 3.75 5.56 8.78 1.88 5.03 1.88 10.84 0 7.19-2.53 13.13t-7.03 10.16q-4.5 4.21-10.66 6.53-6.16 2.31-13.41 2.31-4.25 0-8.06-.87-3.81-.88-7.16-2.35-3.34-1.47-6.18-3.37-2.85-1.91-5.1-4.04l4.75-6.56q1.5-2.12 3.94-2.12 1.56 0 3.19 1 1.62 1 3.72 2.18 2.09 1.19 4.93 2.19 2.85 1 6.85 1 4.25 0 7.5-1.37 3.25-1.38 5.4-3.85 2.16-2.47 3.25-5.87 1.1-3.41 1.1-7.41 0-7.37-4.28-11.53-4.28-4.16-12.66-4.16-6.44 0-13.19 2.38l-9.62-2.75 7.5-43.88h44.62v6.57q0 3.31-2.06 5.37t-7 2.06h-24.81ZM1214.72 125q0 11.81-2.53 20.53t-7 14.41q-4.47 5.69-10.56 8.47-6.1 2.78-13.16 2.78-7.06 0-13.09-2.78t-10.47-8.47q-4.44-5.69-6.94-14.41-2.5-8.72-2.5-20.53 0-11.87 2.5-20.56t6.94-14.38q4.44-5.68 10.47-8.46 6.03-2.79 13.09-2.79t13.16 2.79q6.09 2.78 10.56 8.46 4.47 5.69 7 14.38 2.53 8.69 2.53 20.56Zm-15.94 0q0-9.81-1.43-16.25-1.44-6.44-3.85-10.25-2.4-3.81-5.53-5.34-3.12-1.53-6.5-1.53-3.31 0-6.41 1.53-3.09 1.53-5.46 5.34-2.38 3.81-3.79 10.25-1.4 6.44-1.4 16.25 0 9.81 1.4 16.25 1.41 6.44 3.79 10.25 2.37 3.81 5.46 5.35 3.1 1.53 6.41 1.53 3.38 0 6.5-1.53 3.13-1.54 5.53-5.35 2.41-3.81 3.85-10.25 1.43-6.44 1.43-16.25Z"/></svg>